<?xml version="1.0" encoding="UTF-8"?>
<svg width="296px" height="296px" viewBox="0 0 296 296" version="1.1" xmlns="http://www.w3.org/2000/svg" xmlns:xlink="http://www.w3.org/1999/xlink">
    <title>Group 16@3x</title>
    <g id="Page-1" stroke="none" stroke-width="1" fill="none" fill-rule="evenodd">
        <g id="Artboard" transform="translate(-33.000000, -103.000000)" fill="#000000">
            <g id="Group-16" transform="translate(33.000000, 102.999761)">
                <g id="Group-3">
                    <path d="M147.795787,90.7367358 C187.452719,90.7367358 227.109652,90.7367358 266.765812,90.7367358 C267.728857,90.7367358 268.693446,90.6865675 269.653404,90.7375076 C271.594928,90.8417033 272.487751,90.0119966 272.429104,88.0168413 C272.35348,85.4196663 272.458428,82.8170885 272.399781,80.2191417 C272.063332,65.2141848 262.975366,52.8156648 249.001951,48.0620241 C243.094812,46.0522043 237.019448,46.6920432 230.981124,46.5029473 C228.578141,46.4280807 227.766344,47.4237288 227.801069,49.7600286 C227.895213,56.0164033 227.883637,62.2758652 227.807242,68.5322399 C227.723902,75.3821444 222.515124,80.5927027 215.962867,80.5162925 C209.396721,80.4391104 204.333789,75.2069412 204.276685,68.3439158 C204.224983,62.182475 204.176368,56.0194906 204.301379,49.8603652 C204.353081,47.3357413 203.417816,46.49137 200.933036,46.4944488 C165.511804,46.5453974 130.089801,46.5423101 94.6685697,46.5014036 C92.3219189,46.4983163 91.402859,47.3203049 91.4476159,49.7129476 C91.5579648,55.5834121 91.4923728,61.4577358 91.4784827,67.3305159 C91.4599626,75.11741 86.5567666,80.6544483 79.6333364,80.4900506 C73.2878877,80.3387738 67.4285916,75.4130172 67.8522388,67.2378974 C68.1562771,61.3805538 67.8545539,55.4946528 67.9355793,49.6226446 C67.9656744,47.4268161 67.1855153,46.4249934 64.9137166,46.50835 C62.1264418,46.6110021 59.3314502,46.5060346 56.5410887,46.546941 C41.9225577,46.7584198 29.3643877,56.172311 24.9905578,70.1306796 C23.3222056,75.4554673 23.2651019,80.9253572 23.3198906,86.4207171 C23.3638758,90.7236148 23.3360957,90.7344203 27.6697987,90.7351921 C67.7117948,90.7375076 107.753791,90.7367358 147.795787,90.7367358 M148.170819,114.669337 C107.938992,114.669337 67.7071647,114.669337 27.4753376,114.673196 C23.5035482,114.673968 23.333009,114.822158 23.3322373,118.350148 C23.3245573,158.301106 23.3114022,198.251292 23.3523007,238.20225 C23.3577024,243.351063 24.3300076,248.376384 26.6465632,253.015796 C33.5537883,266.852217 45.1697483,272.65013 60.22736,272.64319 C118.649782,272.616942 177.072204,272.645499 235.495398,272.596875 C238.750305,272.594559 242.073891,272.410094 245.247001,271.743242 C261.628028,268.29938 272.382032,254.778633 272.400552,237.644224 C272.444538,198.175654 272.415986,158.70554 272.415214,119.236197 C272.415214,114.680143 272.409812,114.669337 267.711109,114.669337 C227.863574,114.669337 188.017582,114.669337 148.170819,114.669337 M245.490078,296.000779 L50.2535153,296.000779 C49.7881979,295.883462 49.3290538,295.733729 48.8583346,295.655004 C28.7177276,292.264397 14.1516702,281.367068 5.07064861,263.104258 C2.4338496,257.800309 1.11274925,252.085752 0,246.314853 L0,72.4160393 C0.180570959,71.571668 0.367315285,70.7288403 0.540169537,69.8829253 C5.54291112,45.3722307 23.0636959,28.0834578 47.6275197,23.4340128 C53.3409701,22.3526926 59.1254141,22.5031976 64.8944248,22.5896415 C67.1523335,22.6236015 68.0173764,21.732921 67.9332643,19.5100788 C67.8321754,16.8187417 67.8715306,14.1181427 67.943296,11.4244902 C68.1169219,4.93579761 73.2114923,-0.00693906938 79.6541716,7.31258729e-06 C86.1238593,0.0100409754 91.2577849,4.93965671 91.4591909,11.3766373 C91.5193813,13.3000133 91.4800261,15.2272484 91.4807977,17.1529398 C91.4838844,22.5610841 91.4831127,22.5633996 96.7520807,22.5633996 C127.071797,22.5641714 157.391513,22.5633996 187.710457,22.5633996 C192.138304,22.5633996 196.570009,22.4592038 200.992455,22.5996751 C203.551315,22.6814881 204.425618,21.6619136 204.293662,19.1920889 C204.151675,16.5046109 204.194117,13.799381 204.296749,11.1080439 C204.533652,4.86942107 209.733169,7.31258729e-06 216.058555,7.31258729e-06 C222.40709,7.31258729e-06 227.560307,4.84703828 227.786407,11.1103594 C227.883637,13.8032401 227.936111,16.5069263 227.801069,19.1951761 C227.677601,21.6611417 228.556534,22.6421252 231.112308,22.6081651 C235.8195,22.5456477 240.519746,22.5294395 245.235426,23.0272635 C273.43845,26.0010868 295.914132,50.6630582 295.945771,79.049834 C296.005189,132.672816 296.040686,186.296569 295.916447,239.920322 C295.877092,256.626371 289.057837,270.496752 276.783642,281.693548 C267.903255,289.793801 257.271947,294.185458 245.490078,296.000779" id="Fill-1"></path>
                </g>
                <path d="M79.3362906,171.974245 C75.451738,171.974245 71.5664054,172.037812 67.6834128,171.960119 C61.0601727,171.82906 55.9221108,166.459583 56.0008939,159.854859 C56.079677,153.362359 61.1802974,148.128649 67.6857529,148.061158 C75.5515819,147.979541 83.418971,147.980325 91.2840199,148.061158 C97.7668546,148.127864 102.897116,153.37727 102.99852,159.854859 C103.100704,166.394446 97.8986798,171.816504 91.2808998,171.957765 C87.3011835,172.042521 83.317567,171.974245 79.3362906,171.974245" id="Fill-4"></path>
                <path d="M216.751204,148.023792 C220.635995,148.024576 224.522346,147.961034 228.404797,148.039481 C234.884129,148.169704 239.971021,153.42962 240,159.925085 C240.027967,166.414275 234.959797,171.824026 228.513228,171.915809 C220.550966,172.028774 212.584805,172.027205 204.622543,171.918163 C198.151012,171.829517 193.032917,166.478602 193,160.03099 C192.96739,153.477473 198.186115,148.137541 204.805862,148.03399 C208.786602,147.972016 212.769683,148.022223 216.751204,148.023792" id="Fill-6"></path>
                <path d="M79.3332368,239.971237 C75.4494625,239.970453 71.5633482,240.047277 67.681134,239.953991 C61.0430704,239.793289 55.9198269,234.427401 56.0009501,227.841744 C56.0812933,221.347021 61.1148332,216.173192 67.6904944,216.081474 C75.5547667,215.974078 83.4221592,215.97251 91.2864315,216.08069 C97.9400958,216.173192 103.097661,221.597089 102.998597,228.141983 C102.901093,234.5834 97.7716091,239.805832 91.2770711,239.954775 C87.2973531,240.045709 83.3145149,239.971237 79.3332368,239.971237" id="Fill-8"></path>
                <path d="M148.013728,148.032483 C151.911191,148.030915 155.809417,147.960357 159.705353,148.046595 C165.978404,148.18536 171.025863,153.585418 171,160.014842 C170.973938,166.329021 166.035675,171.776902 159.903127,171.889795 C151.921118,172.0364 143.932235,172.037968 135.950989,171.889011 C129.837531,171.775334 124.979448,166.304718 125,159.93174 C125.021446,153.553274 129.90702,148.22691 136.037277,148.056003 C140.027136,147.944677 144.020814,148.034835 148.013728,148.032483" id="Fill-10"></path>
                <path d="M147.914762,216.033408 C151.812267,216.030273 155.710536,215.951113 159.60575,216.049083 C165.97203,216.208187 170.954636,221.446846 171,227.898768 C171.045507,234.300528 166.015557,239.794694 159.723347,239.902853 C151.930628,240.036092 144.133327,240.027471 136.340609,239.908339 C129.966691,239.811153 125.028376,234.509793 125,228.024953 C124.971868,221.511898 129.862076,216.233267 136.223775,216.056137 C140.118225,215.947978 144.017257,216.035759 147.914762,216.033408" id="Fill-12"></path>
                <path d="M216.504677,216.032507 C220.48622,216.032507 224.469323,215.949425 228.448526,216.051318 C234.966118,216.219833 239.993752,221.460257 240,227.953179 C240.007013,234.41475 234.941155,239.799392 228.463347,239.90442 C220.503382,240.033745 212.537175,240.029826 204.57643,239.906771 C198.134505,239.806446 193.00078,234.380263 193,227.968855 C192.99922,221.519042 198.08068,216.219049 204.560828,216.051318 C208.540031,215.948641 212.523134,216.032507 216.504677,216.032507" id="Fill-14"></path>
            </g>
        </g>
    </g>
</svg>